<svg xmlns="http://www.w3.org/2000/svg" viewBox="0 0 620 190" role="img" aria-label="Qlik to Power BI"><defs><linearGradient id="w" x1="0" y1="0" x2="1" y2="0"><stop stop-color="#00a6e8"/><stop offset=".55" stop-color="#347cff"/><stop offset="1" stop-color="#9a4dff"/></linearGradient><linearGradient id="g" x1="0" y1="0" x2="0" y2="1"><stop stop-color="#ffd24a"/><stop offset="1" stop-color="#e5ae00"/></linearGradient></defs><rect x="4" y="18" width="130" height="130" rx="22" fill="#102a49" stroke="#4a8cc0"/><rect x="486" y="18" width="130" height="130" rx="22" fill="#102a49" stroke="#638fff"/><text x="69" y="111" text-anchor="middle" font-family="Arial,Helvetica,sans-serif" font-size="78" font-weight="700" fill="#17b965">Q</text><g fill="url(#g)"><rect x="518" y="78" width="22" height="47" rx="5"/><rect x="544" y="58" width="22" height="67" rx="5"/><rect x="570" y="36" width="22" height="89" rx="5"/></g><path d="M132 67 C185 33 220 105 272 75 S356 48 400 79 S452 103 490 65" fill="none" stroke="url(#w)" stroke-width="11" stroke-linecap="round"/><path d="M132 89 C185 55 220 127 272 97 S356 70 400 101 S452 125 490 87" fill="none" stroke="url(#w)" stroke-width="4" stroke-linecap="round" opacity=".75"/><g fill="#53cfff"><rect x="162" y="39" width="7" height="7" rx="1"/><rect x="205" y="111" width="6" height="6" rx="1"/><rect x="253" y="47" width="7" height="7" rx="1"/><rect x="312" y="111" width="6" height="6" rx="1"/><rect x="360" y="44" width="7" height="7" rx="1"/><rect x="424" y="116" width="6" height="6" rx="1"/></g></svg>